<svg xmlns="http://www.w3.org/2000/svg" width="1320" height="1044" viewBox="0 0 1320 1044">
<defs><marker id="arrow" viewBox="0 0 10 10" refX="9" refY="5" markerWidth="7" markerHeight="7" orient="auto-start-reverse"><path d="M 0 0 L 10 5 L 0 10 z" fill="#9489ac"/></marker></defs>
<rect width="100%" height="100%" fill="#fff"/>
<text x="40" y="44" font-family="Segoe UI, Arial, sans-serif" font-size="24" font-weight="700" fill="#2e2a38">User flow, prototype v0.1</text>
<text x="40" y="68" font-family="Segoe UI, Arial, sans-serif" font-size="14" fill="#6b6578">Every screen has the help button. Every chapter step has Back. Pink numbers = points to discuss.</text>
<rect x="40" y="100" width="210" height="46" rx="12" fill="#e9e5f1" stroke="#9489ac" stroke-width="2"/>
<text x="145" y="119.5" text-anchor="middle" font-family="Segoe UI, Arial, sans-serif" font-size="14" fill="#2e2a38" font-weight="700">Choose language</text>
<text x="145" y="136.5" text-anchor="middle" font-family="Segoe UI, Arial, sans-serif" font-size="14" fill="#2e2a38">Norwegian only for now</text>
<circle cx="246" cy="104" r="13" fill="#ecb8c8" stroke="#d98aa3" stroke-width="1.5"/>
<text x="246" y="109" text-anchor="middle" font-family="Segoe UI, Arial, sans-serif" font-size="14" font-weight="700" fill="#2e2a38">6</text>
<rect x="300" y="100" width="210" height="46" rx="12" fill="#e9e5f1" stroke="#9489ac" stroke-width="2"/>
<text x="405" y="119.5" text-anchor="middle" font-family="Segoe UI, Arial, sans-serif" font-size="14" fill="#2e2a38" font-weight="700">Intro</text>
<text x="405" y="136.5" text-anchor="middle" font-family="Segoe UI, Arial, sans-serif" font-size="14" fill="#2e2a38">4 short screens</text>
<rect x="560" y="100" width="230" height="46" rx="12" fill="#e9e5f1" stroke="#9489ac" stroke-width="2"/>
<text x="675" y="119.5" text-anchor="middle" font-family="Segoe UI, Arial, sans-serif" font-size="14" fill="#2e2a38" font-weight="700">Mood check-in</text>
<text x="675" y="136.5" text-anchor="middle" font-family="Segoe UI, Arial, sans-serif" font-size="14" fill="#2e2a38">Pick a weather picture</text>
<circle cx="786" cy="104" r="13" fill="#ecb8c8" stroke="#d98aa3" stroke-width="1.5"/>
<text x="786" y="109" text-anchor="middle" font-family="Segoe UI, Arial, sans-serif" font-size="14" font-weight="700" fill="#2e2a38">1</text>
<line x1="250" y1="123" x2="298" y2="123" stroke="#9489ac" stroke-width="2" marker-end="url(#arrow)"/>
<line x1="510" y1="123" x2="558" y2="123" stroke="#9489ac" stroke-width="2" marker-end="url(#arrow)"/>
<text x="840" y="120" font-family="Segoe UI, Arial, sans-serif" font-size="13" fill="#6b6578">First visit only. Returning visitors</text>
<text x="840" y="138" font-family="Segoe UI, Arial, sans-serif" font-size="13" fill="#6b6578">go straight to the overview.</text>
<rect x="420" y="210" width="480" height="56" rx="12" fill="#5b4e7c" stroke="#5b4e7c" stroke-width="2"/>
<text x="660" y="234.5" text-anchor="middle" font-family="Segoe UI, Arial, sans-serif" font-size="14" fill="#fff" font-weight="700">Chapter overview</text>
<text x="660" y="251.5" text-anchor="middle" font-family="Segoe UI, Arial, sans-serif" font-size="14" fill="#fff">Chapters in any order · progress saved on this device</text>
<circle cx="896" cy="214" r="13" fill="#ecb8c8" stroke="#d98aa3" stroke-width="1.5"/>
<text x="896" y="219" text-anchor="middle" font-family="Segoe UI, Arial, sans-serif" font-size="14" font-weight="700" fill="#2e2a38">7</text>
<path d="M 675 146 L 675 208" fill="none" stroke="#9489ac" stroke-width="2" marker-end="url(#arrow)"/>
<line x1="154" y1="304" x2="1174" y2="304" stroke="#9489ac" stroke-width="2"/>
<line x1="660" y1="266" x2="660" y2="304" stroke="#9489ac" stroke-width="2"/>
<line x1="154" y1="304" x2="154" y2="328" stroke="#9489ac" stroke-width="2" marker-end="url(#arrow)"/>
<line x1="404" y1="304" x2="404" y2="328" stroke="#9489ac" stroke-width="2" marker-end="url(#arrow)"/>
<line x1="654" y1="304" x2="654" y2="328" stroke="#9489ac" stroke-width="2" marker-end="url(#arrow)"/>
<line x1="904" y1="304" x2="904" y2="328" stroke="#9489ac" stroke-width="2" marker-end="url(#arrow)"/>
<line x1="1174" y1="304" x2="1174" y2="328" stroke="#9489ac" stroke-width="2" marker-end="url(#arrow)"/>
<rect x="40" y="330" width="228" height="46" rx="12" fill="#96a87f" stroke="#96a87f" stroke-width="2"/>
<text x="154" y="349.5" text-anchor="middle" font-family="Segoe UI, Arial, sans-serif" font-size="14" fill="#fff" font-weight="700">Chapter 1</text>
<text x="154" y="366.5" text-anchor="middle" font-family="Segoe UI, Arial, sans-serif" font-size="14" fill="#fff">Your representative</text>
<rect x="40" y="392" width="228" height="46" rx="12" fill="#eef3e6" stroke="#96a87f" stroke-width="2"/>
<text x="154" y="420" text-anchor="middle" font-family="Segoe UI, Arial, sans-serif" font-size="14" fill="#2e2a38">What is a representative?</text>
<line x1="154" y1="376" x2="154" y2="390" stroke="#9489ac" stroke-width="2" marker-end="url(#arrow)"/>
<rect x="40" y="454" width="228" height="46" rx="12" fill="#eef3e6" stroke="#96a87f" stroke-width="2"/>
<text x="154" y="473.5" text-anchor="middle" font-family="Segoe UI, Arial, sans-serif" font-size="14" fill="#2e2a38" font-weight="700">3 × "True for you?"</text>
<text x="154" y="490.5" text-anchor="middle" font-family="Segoe UI, Arial, sans-serif" font-size="14" fill="#2e2a38">Yes / No / Don't know</text>
<circle cx="264" cy="458" r="13" fill="#ecb8c8" stroke="#d98aa3" stroke-width="1.5"/>
<text x="264" y="463" text-anchor="middle" font-family="Segoe UI, Arial, sans-serif" font-size="14" font-weight="700" fill="#2e2a38">3</text>
<line x1="154" y1="438" x2="154" y2="452" stroke="#9489ac" stroke-width="2" marker-end="url(#arrow)"/>
<rect x="40" y="516" width="228" height="46" rx="12" fill="#eef3e6" stroke="#96a87f" stroke-width="2"/>
<text x="154" y="535.5" text-anchor="middle" font-family="Segoe UI, Arial, sans-serif" font-size="14" fill="#2e2a38" font-weight="700">If No / Don't know:</text>
<text x="154" y="552.5" text-anchor="middle" font-family="Segoe UI, Arial, sans-serif" font-size="14" fill="#2e2a38">"Show to staff" card</text>
<circle cx="264" cy="520" r="13" fill="#ecb8c8" stroke="#d98aa3" stroke-width="1.5"/>
<text x="264" y="525" text-anchor="middle" font-family="Segoe UI, Arial, sans-serif" font-size="14" font-weight="700" fill="#2e2a38">4</text>
<line x1="154" y1="500" x2="154" y2="514" stroke="#9489ac" stroke-width="2" marker-end="url(#arrow)"/>
<rect x="40" y="578" width="228" height="46" rx="12" fill="#eef3e6" stroke="#96a87f" stroke-width="2"/>
<text x="154" y="606" text-anchor="middle" font-family="Segoe UI, Arial, sans-serif" font-size="14" fill="#2e2a38">1 × "Did you know?" myth</text>
<line x1="154" y1="562" x2="154" y2="576" stroke="#9489ac" stroke-width="2" marker-end="url(#arrow)"/>
<rect x="40" y="640" width="228" height="46" rx="12" fill="#eef3e6" stroke="#96a87f" stroke-width="2"/>
<text x="154" y="668" text-anchor="middle" font-family="Segoe UI, Arial, sans-serif" font-size="14" fill="#2e2a38">Summary</text>
<line x1="154" y1="624" x2="154" y2="638" stroke="#9489ac" stroke-width="2" marker-end="url(#arrow)"/>
<rect x="40" y="702" width="228" height="46" rx="12" fill="#5b4e7c" stroke="#5b4e7c" stroke-width="2"/>
<text x="154" y="730" text-anchor="middle" font-family="Segoe UI, Arial, sans-serif" font-size="14" fill="#fff" font-weight="700">Rights card</text>
<line x1="154" y1="686" x2="154" y2="700" stroke="#9489ac" stroke-width="2" marker-end="url(#arrow)"/>
<rect x="290" y="330" width="228" height="46" rx="12" fill="#96a87f" stroke="#96a87f" stroke-width="2"/>
<text x="404" y="349.5" text-anchor="middle" font-family="Segoe UI, Arial, sans-serif" font-size="14" fill="#fff" font-weight="700">Chapter 2</text>
<text x="404" y="366.5" text-anchor="middle" font-family="Segoe UI, Arial, sans-serif" font-size="14" fill="#fff">Body and mind</text>
<rect x="290" y="392" width="228" height="46" rx="12" fill="#eef3e6" stroke="#96a87f" stroke-width="2"/>
<text x="404" y="420" text-anchor="middle" font-family="Segoe UI, Arial, sans-serif" font-size="14" fill="#2e2a38">Right to healthcare</text>
<line x1="404" y1="376" x2="404" y2="390" stroke="#9489ac" stroke-width="2" marker-end="url(#arrow)"/>
<rect x="290" y="454" width="228" height="46" rx="12" fill="#eef3e6" stroke="#96a87f" stroke-width="2"/>
<text x="404" y="482" text-anchor="middle" font-family="Segoe UI, Arial, sans-serif" font-size="14" fill="#2e2a38">1 × "Did you know?" myth</text>
<line x1="404" y1="438" x2="404" y2="452" stroke="#9489ac" stroke-width="2" marker-end="url(#arrow)"/>
<rect x="290" y="516" width="228" height="46" rx="12" fill="#eef3e6" stroke="#96a87f" stroke-width="2"/>
<text x="404" y="544" text-anchor="middle" font-family="Segoe UI, Arial, sans-serif" font-size="14" fill="#2e2a38">Sleep → body → mind chain</text>
<line x1="404" y1="500" x2="404" y2="514" stroke="#9489ac" stroke-width="2" marker-end="url(#arrow)"/>
<rect x="290" y="578" width="228" height="46" rx="12" fill="#eef3e6" stroke="#96a87f" stroke-width="2"/>
<text x="404" y="597.5" text-anchor="middle" font-family="Segoe UI, Arial, sans-serif" font-size="14" fill="#2e2a38" font-weight="700">Read the story?</text>
<text x="404" y="614.5" text-anchor="middle" font-family="Segoe UI, Arial, sans-serif" font-size="14" fill="#2e2a38">Read / Skip</text>
<circle cx="514" cy="582" r="13" fill="#ecb8c8" stroke="#d98aa3" stroke-width="1.5"/>
<text x="514" y="587" text-anchor="middle" font-family="Segoe UI, Arial, sans-serif" font-size="14" font-weight="700" fill="#2e2a38">5</text>
<line x1="404" y1="562" x2="404" y2="576" stroke="#9489ac" stroke-width="2" marker-end="url(#arrow)"/>
<rect x="290" y="640" width="228" height="46" rx="12" fill="#eef3e6" stroke="#96a87f" stroke-width="2"/>
<text x="404" y="659.5" text-anchor="middle" font-family="Segoe UI, Arial, sans-serif" font-size="14" fill="#2e2a38" font-weight="700">Story "Stille gutt"</text>
<text x="404" y="676.5" text-anchor="middle" font-family="Segoe UI, Arial, sans-serif" font-size="14" fill="#2e2a38">4 panels</text>
<line x1="404" y1="624" x2="404" y2="638" stroke="#9489ac" stroke-width="2" marker-end="url(#arrow)"/>
<rect x="290" y="702" width="228" height="46" rx="12" fill="#eef3e6" stroke="#96a87f" stroke-width="2"/>
<text x="404" y="730" text-anchor="middle" font-family="Segoe UI, Arial, sans-serif" font-size="14" fill="#2e2a38">What does Hamlin feel?</text>
<line x1="404" y1="686" x2="404" y2="700" stroke="#9489ac" stroke-width="2" marker-end="url(#arrow)"/>
<rect x="290" y="764" width="228" height="46" rx="12" fill="#eef3e6" stroke="#96a87f" stroke-width="2"/>
<text x="404" y="783.5" text-anchor="middle" font-family="Segoe UI, Arial, sans-serif" font-size="14" fill="#2e2a38" font-weight="700">Who can help?</text>
<text x="404" y="800.5" text-anchor="middle" font-family="Segoe UI, Arial, sans-serif" font-size="14" fill="#2e2a38">Tap in order</text>
<line x1="404" y1="748" x2="404" y2="762" stroke="#9489ac" stroke-width="2" marker-end="url(#arrow)"/>
<rect x="290" y="826" width="228" height="46" rx="12" fill="#eef3e6" stroke="#96a87f" stroke-width="2"/>
<text x="404" y="845.5" text-anchor="middle" font-family="Segoe UI, Arial, sans-serif" font-size="14" fill="#2e2a38" font-weight="700">Summary</text>
<text x="404" y="862.5" text-anchor="middle" font-family="Segoe UI, Arial, sans-serif" font-size="14" fill="#2e2a38">+ "Show to staff" card</text>
<line x1="404" y1="810" x2="404" y2="824" stroke="#9489ac" stroke-width="2" marker-end="url(#arrow)"/>
<rect x="290" y="888" width="228" height="46" rx="12" fill="#5b4e7c" stroke="#5b4e7c" stroke-width="2"/>
<text x="404" y="916" text-anchor="middle" font-family="Segoe UI, Arial, sans-serif" font-size="14" fill="#fff" font-weight="700">Rights card</text>
<line x1="404" y1="872" x2="404" y2="886" stroke="#9489ac" stroke-width="2" marker-end="url(#arrow)"/>
<path d="M 518 601 L 536 601 L 536 849 L 520 849" fill="none" stroke="#9489ac" stroke-width="2" stroke-dasharray="6 5" marker-end="url(#arrow)"/>
<text x="542" y="725" font-family="Segoe UI, Arial, sans-serif" font-size="12" fill="#6b6578">skip</text>
<rect x="540" y="330" width="228" height="46" rx="12" fill="#fff" stroke="#96a87f" stroke-width="2" stroke-dasharray="7 5"/>
<text x="654" y="349.5" text-anchor="middle" font-family="Segoe UI, Arial, sans-serif" font-size="14" fill="#6b6578" font-weight="700">Chapter 3</text>
<text x="654" y="366.5" text-anchor="middle" font-family="Segoe UI, Arial, sans-serif" font-size="14" fill="#6b6578">What do you like to do?</text>
<rect x="540" y="392" width="228" height="46" rx="12" fill="#fff" stroke="#9489ac" stroke-width="2" stroke-dasharray="7 5"/>
<text x="654" y="411.5" text-anchor="middle" font-family="Segoe UI, Arial, sans-serif" font-size="14" fill="#6b6578" font-weight="700">Coming soon</text>
<text x="654" y="428.5" text-anchor="middle" font-family="Segoe UI, Arial, sans-serif" font-size="14" fill="#6b6578">(activities)</text>
<line x1="654" y1="376" x2="654" y2="390" stroke="#9489ac" stroke-width="2" marker-end="url(#arrow)"/>
<rect x="790" y="330" width="228" height="46" rx="12" fill="#e9e5f1" stroke="#9489ac" stroke-width="2"/>
<text x="904" y="358" text-anchor="middle" font-family="Segoe UI, Arial, sans-serif" font-size="14" fill="#2e2a38">My rights cards</text>
<rect x="1060" y="330" width="228" height="46" rx="12" fill="#e9e5f1" stroke="#9489ac" stroke-width="2"/>
<text x="1174" y="349.5" text-anchor="middle" font-family="Segoe UI, Arial, sans-serif" font-size="14" fill="#2e2a38" font-weight="700">"Finish for today"</text>
<text x="1174" y="366.5" text-anchor="middle" font-family="Segoe UI, Arial, sans-serif" font-size="14" fill="#2e2a38">button</text>
<circle cx="1284" cy="334" r="13" fill="#ecb8c8" stroke="#d98aa3" stroke-width="1.5"/>
<text x="1284" y="339" text-anchor="middle" font-family="Segoe UI, Arial, sans-serif" font-size="14" font-weight="700" fill="#2e2a38">2</text>
<rect x="1060" y="392" width="228" height="46" rx="12" fill="#e9e5f1" stroke="#9489ac" stroke-width="2"/>
<text x="1174" y="411.5" text-anchor="middle" font-family="Segoe UI, Arial, sans-serif" font-size="14" fill="#2e2a38" font-weight="700">Mood check-in again</text>
<text x="1174" y="428.5" text-anchor="middle" font-family="Segoe UI, Arial, sans-serif" font-size="14" fill="#2e2a38">Weather picture</text>
<circle cx="1284" cy="396" r="13" fill="#ecb8c8" stroke="#d98aa3" stroke-width="1.5"/>
<text x="1284" y="401" text-anchor="middle" font-family="Segoe UI, Arial, sans-serif" font-size="14" font-weight="700" fill="#2e2a38">2</text>
<line x1="1174" y1="376" x2="1174" y2="390" stroke="#9489ac" stroke-width="2" marker-end="url(#arrow)"/>
<rect x="1060" y="454" width="228" height="64" rx="12" fill="#e9e5f1" stroke="#9489ac" stroke-width="2"/>
<text x="1174" y="474" text-anchor="middle" font-family="Segoe UI, Arial, sans-serif" font-size="14" fill="#2e2a38" font-weight="700">Closing</text>
<text x="1174" y="491" text-anchor="middle" font-family="Segoe UI, Arial, sans-serif" font-size="14" fill="#2e2a38">Before/after weather, key</text>
<text x="1174" y="508" text-anchor="middle" font-family="Segoe UI, Arial, sans-serif" font-size="14" fill="#2e2a38">messages, cards, contact</text>
<line x1="1174" y1="438" x2="1174" y2="452" stroke="#9489ac" stroke-width="2" marker-end="url(#arrow)"/>
<text x="154" y="770" text-anchor="middle" font-family="Segoe UI, Arial, sans-serif" font-size="12" fill="#6b6578">→ back to overview</text>
<text x="404" y="956" text-anchor="middle" font-family="Segoe UI, Arial, sans-serif" font-size="12" fill="#6b6578">→ back to overview</text>
<text x="1174" y="540" text-anchor="middle" font-family="Segoe UI, Arial, sans-serif" font-size="12" fill="#6b6578">→ back to overview</text>
<rect x="540" y="484" width="228" height="54" rx="12" fill="#fff" stroke="#9489ac" stroke-width="2"/>
<text x="654" y="507.5" text-anchor="middle" font-family="Segoe UI, Arial, sans-serif" font-size="14" fill="#6b6578" font-weight="700">"Start over"</text>
<text x="654" y="524.5" text-anchor="middle" font-family="Segoe UI, Arial, sans-serif" font-size="14" fill="#6b6578">Clears progress → language</text>
<text x="654" y="474" text-anchor="middle" font-family="Segoe UI, Arial, sans-serif" font-size="12" fill="#6b6578">from the overview</text>
<rect x="40" y="994" width="28" height="18" rx="5" fill="#e9e5f1" stroke="#9489ac" stroke-width="2"/>
<text x="78" y="1008" font-family="Segoe UI, Arial, sans-serif" font-size="13" fill="#2e2a38">Shared screens</text>
<rect x="240" y="994" width="28" height="18" rx="5" fill="#eef3e6" stroke="#96a87f" stroke-width="2"/>
<text x="278" y="1008" font-family="Segoe UI, Arial, sans-serif" font-size="13" fill="#2e2a38">Chapter steps</text>
<rect x="440" y="994" width="28" height="18" rx="5" fill="#fff" stroke="#9489ac" stroke-width="2" stroke-dasharray="5 4"/>
<text x="478" y="1008" font-family="Segoe UI, Arial, sans-serif" font-size="13" fill="#2e2a38">Not built yet</text>
<circle cx="654" cy="1003" r="13" fill="#ecb8c8" stroke="#d98aa3" stroke-width="1.5"/>
<text x="654" y="1008" text-anchor="middle" font-family="Segoe UI, Arial, sans-serif" font-size="14" font-weight="700" fill="#2e2a38">n</text>
<text x="676" y="1008" font-family="Segoe UI, Arial, sans-serif" font-size="13" fill="#2e2a38">Point to discuss</text>
</svg>